<?xml version="1.0" standalone="no"?><!DOCTYPE svg PUBLIC "-//W3C//DTD SVG 1.1//EN" "http://www.w3.org/Graphics/SVG/1.1/DTD/svg11.dtd"><svg width="200" height="200" viewBox="0 0 200 200" version="1.1" xmlns="http://www.w3.org/2000/svg" xmlns:xlink="http://www.w3.org/1999/xlink"><defs><style type="text/css"><![CDATA[
@font-face { font-family: ifont; src: url("http://at.alicdn.com/t/font_1442373896_4754455.eot?#iefix") format("embedded-opentype"), url("http://at.alicdn.com/t/font_1442373896_4754455.woff") format("woff"), url("http://at.alicdn.com/t/font_1442373896_4754455.ttf") format("truetype"), url("http://at.alicdn.com/t/font_1442373896_4754455.svg#ifont") format("svg"); }

]]></style></defs><g class="transform-group"><g transform="scale(0.1953125, 0.1953125)"><path d="M508.988235 1024c-30.117647 0-54.211765-15.058824-75.294118-27.105882l-69.270588-39.152941c-12.047059-6.023529-18.070588-21.082353-15.058824-33.129412 3.011765-12.047059 15.058824-21.082353 30.117647-21.082353l262.023529 0c15.058824 0 27.105882 9.035294 30.117647 21.082353 3.011765 12.047059-3.011765 27.105882-15.058824 33.129412l-66.258824 36.141176c-21.082353 12.047059-45.176471 24.094118-72.282353 27.105882C515.011765 1024 512 1024 508.988235 1024zM593.317647 771.011765c-18.070588 0-36.141176 0-51.2 0-18.070588 0-33.129412 0-51.2 0l-84.329412 0c-3.011765 0-6.023529 0-9.035294 0-18.070588 0-39.152941 3.011765-57.223529-9.035294-21.082353-12.047059-30.117647-33.129412-39.152941-48.188235-3.011765-9.035294-6.023529-15.058824-9.035294-18.070588-3.011765-3.011765-9.035294-6.023529-12.047059-9.035294-3.011765-3.011765-6.023529-6.023529-9.035294-6.023529-18.070588-15.058824-36.141176-30.117647-51.2-45.176471-60.235294-66.258824-96.376471-156.611765-96.376471-249.976471 0 0 0 0 0 0C120.470588 271.058824 165.647059 171.670588 249.976471 99.388235c87.341176-75.294118 204.8-111.435294 322.258824-93.364706 105.411765 15.058824 201.788235 75.294118 265.035294 165.647059 60.235294 87.341176 81.317647 186.729412 60.235294 286.117647-18.070588 78.305882-60.235294 150.588235-120.470588 204.8-6.023529 6.023529-12.047059 12.047059-21.082353 15.058824-9.035294 6.023529-18.070588 15.058824-24.094118 21.082353-6.023529 6.023529-9.035294 12.047059-12.047059 21.082353-9.035294 18.070588-24.094118 48.188235-72.282353 51.2C626.447059 771.011765 608.376471 771.011765 593.317647 771.011765zM403.576471 707.764706l84.329412 0c18.070588 0 36.141176 0 51.2 0 33.129412 0 69.270588 0 102.4 0 12.047059 0 12.047059 0 21.082353-18.070588 6.023529-9.035294 12.047059-21.082353 21.082353-33.129412 9.035294-12.047059 24.094118-21.082353 36.141176-30.117647 6.023529-3.011765 12.047059-9.035294 15.058824-12.047059 51.2-45.176471 87.341176-105.411765 102.4-171.670588 18.070588-81.317647 0-165.647059-51.2-237.929412-51.2-75.294118-132.517647-126.494118-222.870588-138.541176-99.388235-15.058824-198.776471 15.058824-274.070588 81.317647C219.858824 204.8 180.705882 289.129412 180.705882 379.482353c0 75.294118 30.117647 153.6 81.317647 207.811765 12.047059 15.058824 27.105882 27.105882 42.164706 39.152941 3.011765 3.011765 6.023529 3.011765 9.035294 6.023529 6.023529 6.023529 15.058824 12.047059 21.082353 18.070588 9.035294 12.047059 15.058824 24.094118 21.082353 36.141176 3.011765 9.035294 9.035294 18.070588 12.047059 21.082353 3.011765 0 18.070588 0 24.094118 0C397.552941 707.764706 400.564706 707.764706 403.576471 707.764706zM614.4 897.505882l-207.811765 0c-33.129412 0-57.223529-27.105882-57.223529-57.223529l0-9.035294c0-33.129412 27.105882-57.223529 57.223529-57.223529l207.811765 0c33.129412 0 57.223529 27.105882 57.223529 57.223529l0 9.035294C674.635294 870.4 647.529412 897.505882 614.4 897.505882zM614.4 831.247059l-204.8 3.011765 3.011765 6.023529 201.788235-3.011765L614.4 831.247059zM734.870588 409.6c-18.070588 0-30.117647-12.047059-30.117647-30.117647C704.752941 271.058824 611.388235 180.705882 496.941176 180.705882c-18.070588 0-30.117647-12.047059-30.117647-30.117647s12.047059-30.117647 30.117647-30.117647c147.576471 0 268.047059 117.458824 268.047059 262.023529C764.988235 397.552941 749.929412 409.6 734.870588 409.6z" fill="#56abe4"></path></g></g></svg>