<?xml version="1.0" standalone="no"?><!DOCTYPE svg PUBLIC "-//W3C//DTD SVG 1.1//EN" "http://www.w3.org/Graphics/SVG/1.1/DTD/svg11.dtd"><svg width="200" height="200" viewBox="0 0 200 200" version="1.1" xmlns="http://www.w3.org/2000/svg" xmlns:xlink="http://www.w3.org/1999/xlink"><defs><style type="text/css"><![CDATA[
@font-face { font-family: ifont; src: url("http://at.alicdn.com/t/font_1442373896_4754455.eot?#iefix") format("embedded-opentype"), url("http://at.alicdn.com/t/font_1442373896_4754455.woff") format("woff"), url("http://at.alicdn.com/t/font_1442373896_4754455.ttf") format("truetype"), url("http://at.alicdn.com/t/font_1442373896_4754455.svg#ifont") format("svg"); }

]]></style></defs><g class="transform-group"><g transform="scale(0.1953125, 0.1953125)"><path d="M768 690.528l0-78.976c0-82.336-66.976-149.344-149.344-149.344-35.296 0-64-28.704-64-64l0-64.736c49.536-17.696 85.344-64.608 85.344-120.16 0-70.56-57.44-128-128-128s-128 57.44-128 128c0 55.552 35.808 102.432 85.344 120.096l0 64.768c0 35.296-28.704 64-64 64-82.336 0-149.344 66.976-149.344 149.344l0 78.976c-49.536 17.696-85.344 64.608-85.344 120.16 0 70.56 57.44 128 128 128s128-57.44 128-128c0-55.552-35.808-102.432-85.344-120.16l0-78.976c0-35.296 28.704-64 64-64 41.76 0 79.52-17.376 106.656-45.152 27.136 27.776 64.896 45.152 106.656 45.152 35.296 0 64 28.704 64 64l0 78.976c-49.536 17.696-85.344 64.608-85.344 120.16 0 70.56 57.44 128 128 128s128-57.44 128-128c0-55.552-35.808-102.432-85.344-120.16zM298.656 853.344c-23.552 0-42.656-19.168-42.656-42.656s19.104-42.656 42.656-42.656 42.656 19.168 42.656 42.656-19.104 42.656-42.656 42.656zM512 170.656c23.552 0 42.656 19.168 42.656 42.656s-19.104 42.656-42.656 42.656-42.656-19.168-42.656-42.656 19.104-42.656 42.656-42.656zM725.344 853.344c-23.552 0-42.656-19.168-42.656-42.656s19.104-42.656 42.656-42.656 42.656 19.168 42.656 42.656-19.104 42.656-42.656 42.656z" fill="#88147f"></path></g></g></svg>