<?xml version="1.0" standalone="no"?><!DOCTYPE svg PUBLIC "-//W3C//DTD SVG 1.1//EN" "http://www.w3.org/Graphics/SVG/1.1/DTD/svg11.dtd"><svg width="200" height="200" viewBox="0 0 200 200" version="1.1" xmlns="http://www.w3.org/2000/svg" xmlns:xlink="http://www.w3.org/1999/xlink"><defs><style type="text/css"><![CDATA[
@font-face { font-family: ifont; src: url("http://at.alicdn.com/t/font_1442373896_4754455.eot?#iefix") format("embedded-opentype"), url("http://at.alicdn.com/t/font_1442373896_4754455.woff") format("woff"), url("http://at.alicdn.com/t/font_1442373896_4754455.ttf") format("truetype"), url("http://at.alicdn.com/t/font_1442373896_4754455.svg#ifont") format("svg"); }

]]></style></defs><g class="transform-group"><g transform="scale(0.1953125, 0.1953125)"><path d="M682.666667 810.666667C682.666667 904.96 606.293333 981.333333 512 981.333333 417.706667 981.333333 341.333333 904.96 341.333333 810.666667 341.333333 731.306667 395.52 664.32 469.333333 645.546667 469.333333 617.386667 469.333333 589.653333 439.04 545.28 408.32 500.906667 347.306667 440.746667 286.293333 380.16 257.28 385.28 226.56 384 196.693333 372.48 108.373333 341.333333 62.72 242.346667 94.72 153.6 128 65.28 224.853333 19.626667 313.6 51.626667 401.92 84.053333 448 181.76 415.573333 270.506667 405.333333 300.373333 386.56 325.12 362.666667 343.893333 381.013333 402.773333 512 512 512 533.333333 512 512 642.986667 402.773333 661.333333 343.893333 637.44 325.12 618.666667 300.373333 608.426667 270.506667 576 181.76 622.08 84.053333 710.4 51.626667 799.146667 19.626667 896 65.28 929.28 153.6 961.28 242.346667 915.626667 341.333333 827.306667 372.48 797.44 384 766.72 385.28 737.706667 380.16 676.693333 440.746667 615.68 500.906667 584.96 545.28 554.666667 589.653333 554.666667 617.386667 554.666667 645.546667 628.48 664.32 682.666667 731.306667 682.666667 810.666667M512 725.333333C465.066667 725.333333 426.666667 763.733333 426.666667 810.666667 426.666667 857.6 465.066667 896 512 896 558.933333 896 597.333333 857.6 597.333333 810.666667 597.333333 763.733333 558.933333 725.333333 512 725.333333M284.16 131.84C240.213333 116.053333 192 138.666667 174.933333 183.04 158.72 227.413333 181.76 276.053333 226.133333 292.266667 270.08 308.48 320 285.44 335.36 241.493333 351.573333 197.12 328.533333 148.053333 284.16 131.84M739.84 131.84C695.466667 148.053333 672.426667 197.12 688.64 241.493333 704 285.44 753.92 308.48 797.866667 292.266667 842.24 276.053333 865.28 227.413333 849.066667 183.04 832 138.666667 783.786667 116.053333 739.84 131.84Z" fill="#88147f"></path></g></g></svg>