<?xml version="1.0" standalone="no"?><!DOCTYPE svg PUBLIC "-//W3C//DTD SVG 1.1//EN" "http://www.w3.org/Graphics/SVG/1.1/DTD/svg11.dtd"><svg width="200" height="200" viewBox="0 0 200 200" version="1.1" xmlns="http://www.w3.org/2000/svg" xmlns:xlink="http://www.w3.org/1999/xlink"><defs><style type="text/css"><![CDATA[
@font-face { font-family: ifont; src: url("http://at.alicdn.com/t/font_1442373896_4754455.eot?#iefix") format("embedded-opentype"), url("http://at.alicdn.com/t/font_1442373896_4754455.woff") format("woff"), url("http://at.alicdn.com/t/font_1442373896_4754455.ttf") format("truetype"), url("http://at.alicdn.com/t/font_1442373896_4754455.svg#ifont") format("svg"); }

]]></style></defs><g class="transform-group"><g transform="scale(0.1953125, 0.1953125)"><path d="M989.663 827.851c0-171.574-0.095-343.054 0.095-514.628 2.759-30.356-16.463-67.565-50.054-68.325-84.978-3.045-170.052-0.19-255.029-0.666-0.19-39.396 9.802-100.013-40.825-112.099-87.833-3.997-176.713-4.853-264.451 0.476-49.579 13.322-40.157 72.512-40.349 111.718-82.219-0.19-164.532-1.713-246.657 0-37.017-3.426-61.284 35.115-57.286 68.611 0.951 174.811 0 349.715 0.381 524.525-1.427 30.356 26.17 58.143 56.716 56.621 279.487 0.19 559.068-0.19 838.65 0.095 35.59 2.569 63.186-32.070 58.81-66.327zM383.966 174.954c84.502-1.808 170.337-7.804 254.364 1.999 8.185 21.316 5.234 44.82 6.47 67.279-88.309-0.761-176.618-0.286-264.927-0.286 1.141-23.028 2.189-46.057 4.092-68.991zM948.078 848.881c-289.383 8.945-579.813 4.948-869.482 1.999-5.995-118.571-0.286-237.425-3.235-356.186 34.293-0.23 68.592-0.263 102.986-0.071 8.615 26.818 33.789 46.286 63.428 46.286h109.435c30.114 0 55.615-20.097 63.827-47.581h197.676c8.211 27.484 33.713 47.581 63.827 47.581h109.435c29.579 0 54.707-19.388 63.373-46.121 33.169-0.427 66.396-0.361 99.681-0.286-0.474 118.095 1.047 236.284-0.949 354.379zM379.758 474.297c0 15.742-12.805 28.548-28.548 28.548h-109.436c-15.742 0-28.548-12.805-28.548-28.548v-2.973c0-15.742 12.805-28.548 28.548-28.548h109.435c15.742 0 28.548 12.805 28.548 28.548v2.973zM647.991 474.297v-2.973c0-15.742 12.805-28.548 28.548-28.548h109.435c15.742 0 28.548 12.805 28.548 28.548v2.973c0 15.742-12.805 28.548-28.548 28.548h-109.434c-15.742 0-28.549-12.805-28.549-28.548zM948.838 454.441c-32.925-0.3-65.791-0.194-98.596-0.603-7.701-28.274-33.591-49.129-64.268-49.129h-109.435c-31.19 0-57.436 21.557-64.643 50.554h-196.044c-7.206-28.996-33.452-50.554-64.643-50.554h-109.435c-30.783 0-56.75 20.997-64.351 49.421-34.017-0.044-68-0.034-101.968 0.119 0.761-55.098-0.476-110.101 2.665-165.103 271.207-6.186 542.796-0.095 814.194-3.045 17.795 1.999 41.014-4.948 54.336 11.134 5.044 52.148 1.236 104.868 2.189 157.206z" fill="#33475f"></path></g></g></svg>