<?xml version="1.0" standalone="no"?><!DOCTYPE svg PUBLIC "-//W3C//DTD SVG 1.1//EN" "http://www.w3.org/Graphics/SVG/1.1/DTD/svg11.dtd"><svg width="200" height="200" viewBox="0 0 200 200" version="1.1" xmlns="http://www.w3.org/2000/svg" xmlns:xlink="http://www.w3.org/1999/xlink"><defs><style type="text/css"><![CDATA[
@font-face { font-family: ifont; src: url("http://at.alicdn.com/t/font_1442373896_4754455.eot?#iefix") format("embedded-opentype"), url("http://at.alicdn.com/t/font_1442373896_4754455.woff") format("woff"), url("http://at.alicdn.com/t/font_1442373896_4754455.ttf") format("truetype"), url("http://at.alicdn.com/t/font_1442373896_4754455.svg#ifont") format("svg"); }

]]></style></defs><g class="transform-group"><g transform="scale(0.1953125, 0.1953125)"><path d="M992 597.12c0-4.16-1.152-8.064-3.168-11.376l-129.024-261.68c21.536-11.808 36.16-34.64 36.16-60.832 0-38.256-31.152-69.36-69.472-69.36L590.752 193.872 590.752 121.056c0-42.656-34.784-77.344-77.504-77.344-42.736 0-77.488 34.688-77.488 77.344l0 72.816L200 193.872c-38.32 0-69.488 31.104-69.488 69.344 0 26.672 15.184 49.84 37.36 61.44L34.384 587.152c-0.144 0.32-0.256 0.624-0.384 0.944S33.712 588.72 33.6 589.024c-0.464 1.152-0.848 2.336-1.104 3.568-0.032 0.128-0.032 0.288-0.064 0.432-0.224 1.184-0.336 2.368-0.352 3.6 0 0.16-0.048 0.32-0.048 0.496 0 0.256 0.016 0.496 0.016 0.784 0 0.064 0 0.096 0 0.16 0.512 90.4 74.336 163.808 165.024 163.808 90.624 0 164.384-73.28 165.024-163.6 0.016-0.4 0.112-0.784 0.112-1.152 0-4.16-1.152-8.064-3.184-11.376l-124.832-253.152 201.568 0L435.76 825.6l-36.624 0c-42.72 0-77.488 34.688-77.488 77.344s34.768 77.344 77.488 77.344l228.208 0c42.736 0 77.504-34.688 77.504-77.344S670.08 825.6 627.344 825.6l-36.592 0L590.752 332.592l202.928 0-129.488 254.56c-0.16 0.32-0.256 0.592-0.368 0.912-0.16 0.32-0.32 0.656-0.432 0.976-0.448 1.152-0.848 2.336-1.088 3.536-0.032 0.16-0.032 0.32-0.08 0.464-0.24 1.184-0.336 2.368-0.352 3.6 0 0.16-0.048 0.32-0.048 0.496 0 0.256 0.016 0.496 0.016 0.784 0 0.064 0 0.096 0 0.16 0.528 90.4 74.336 163.808 165.056 163.808 90.608 0 164.384-73.312 165.008-163.632C991.904 597.872 992 597.504 992 597.12L992 597.12zM197.056 717.936c-59.232 0-108.672-42.688-119.04-98.848l238.08 0C305.728 675.248 256.304 717.936 197.056 717.936L197.056 717.936zM89.872 575.152l109.104-214.528 105.792 214.528L89.872 575.152 89.872 575.152zM660.816 902.944c0 18.432-15.008 33.44-33.472 33.44L399.136 936.384c-18.464 0-33.472-15.008-33.472-33.44 0-18.4 15.008-33.408 33.472-33.408l228.208 0C645.808 869.536 660.816 884.528 660.816 902.944L660.816 902.944zM568.72 288.656c-12.144 0-22 9.824-22 21.968L546.72 825.6l-66.944 0L479.776 310.608c0-12.128-9.856-21.968-22.016-21.968L200 288.64c-14.032 0-25.472-11.408-25.472-25.408 0-14.016 11.424-25.424 25.472-25.424l257.744 0c12.16 0 22.016-9.84 22.016-21.968L479.76 121.056c0-18.416 15.008-33.408 33.472-33.408s33.472 15.008 33.472 33.408l0 94.784c0 12.128 9.84 21.968 22 21.968l257.744 0c14.032 0 25.472 11.392 25.472 25.424 0 14-11.44 25.408-25.472 25.408L568.72 288.64 568.72 288.656zM828.768 360.64l105.76 214.528-214.88 0L828.768 360.64 828.768 360.64zM826.864 717.936c-59.232 0-108.672-42.688-119.04-98.848l238.096 0C935.536 675.248 886.096 717.936 826.864 717.936L826.864 717.936z" fill="#9d55b8"></path></g></g></svg>