<?xml version="1.0" standalone="no"?><!DOCTYPE svg PUBLIC "-//W3C//DTD SVG 1.1//EN" "http://www.w3.org/Graphics/SVG/1.1/DTD/svg11.dtd"><svg width="200" height="200" viewBox="0 0 200 200" version="1.1" xmlns="http://www.w3.org/2000/svg" xmlns:xlink="http://www.w3.org/1999/xlink"><defs><style type="text/css"><![CDATA[
@font-face { font-family: ifont; src: url("http://at.alicdn.com/t/font_1442373896_4754455.eot?#iefix") format("embedded-opentype"), url("http://at.alicdn.com/t/font_1442373896_4754455.woff") format("woff"), url("http://at.alicdn.com/t/font_1442373896_4754455.ttf") format("truetype"), url("http://at.alicdn.com/t/font_1442373896_4754455.svg#ifont") format("svg"); }

]]></style></defs><g class="transform-group"><g transform="scale(0.1953125, 0.1953125)"><path d="M388.81792 193.536l-4.230144 2.510848-1.381888 0.821248C323.408896 232.30464 282.257408 264.79872 255.093248 296.52992c-27.202048 31.77472-40.354304 63.768576-40.728064 94.610944-0.743936 61.37856 44.529664 107.376128 84.698112 148.513792 40.137728 41.106944 75.941376 79.873024 79.310848 111.955968 1.71776 16.352768-2.14784 32.777728-19.97824 55.266816-17.755136 22.39488-49.979904 49.217536-101.49888 79.24992L180.834816 830.464l469.429248 0 5.5552-3.231744 0.006144-0.00512c54.59712-31.826944 91.380224-61.230592 114.818048-90.79296 23.507968-29.650432 33.072128-60.672 30.012928-89.794048-6.061056-57.703424-53.06624-99.751424-92.583936-140.222976-39.548416-40.503296-71.604224-78.705152-71.168-114.699776 0.22016-18.171392 7.204864-38.443008 29.296128-64.247808 22.053376-25.760768 59.236352-55.900672 116.239872-89.680896l0-0.001024L857.11104 193.536 388.81792 193.536zM402.049024 241.110016l289.097216 0c-25.461248 18.983936-45.592576 37.323776-61.085184 55.419904-27.202048 31.77472-40.354304 63.768576-40.728064 94.610944-0.743936 61.379072 44.532224 107.376128 84.70016 148.513792 40.137216 41.106432 75.938304 79.872512 79.307776 111.955968 1.71776 16.352768-2.146816 32.777728-19.977216 55.266816-17.098752 21.566976-47.84896 47.301632-96.147968 76.012032l-289.83808 0c20.10624-15.681024 36.079616-31.04512 48.29696-46.454784 23.507968-29.650432 33.071616-60.672 30.012928-89.794048-6.061056-57.703424-53.06624-99.751424-92.583936-140.222976-39.548416-40.503296-71.6032-78.705152-71.166976-114.699776 0.22016-18.171392 7.20384-38.443008 29.295104-64.247808C312.544768 302.574592 348.204544 273.532928 402.049024 241.110016zM334.403072 322.249216l0 21.97504 225.995776 0 0-21.97504L334.403072 322.249216zM326.005248 440.610816l0 21.974016 233.66912 0 0-21.974016L326.005248 440.610816zM431.883776 558.969856l0 21.974016 226.297856 0 0-21.974016L431.883776 558.969856zM464.241152 677.330944l0 21.974016 234.488832 0 0-21.974016L464.241152 677.330944z" fill="#0061b2"></path></g></g></svg>