<?xml version="1.0" standalone="no"?><!DOCTYPE svg PUBLIC "-//W3C//DTD SVG 1.1//EN" "http://www.w3.org/Graphics/SVG/1.1/DTD/svg11.dtd"><svg width="200" height="200" viewBox="0 0 200 200" version="1.1" xmlns="http://www.w3.org/2000/svg" xmlns:xlink="http://www.w3.org/1999/xlink"><defs><style type="text/css"><![CDATA[
@font-face { font-family: ifont; src: url("http://at.alicdn.com/t/font_1442373896_4754455.eot?#iefix") format("embedded-opentype"), url("http://at.alicdn.com/t/font_1442373896_4754455.woff") format("woff"), url("http://at.alicdn.com/t/font_1442373896_4754455.ttf") format("truetype"), url("http://at.alicdn.com/t/font_1442373896_4754455.svg#ifont") format("svg"); }

]]></style></defs><g class="transform-group"><g transform="scale(0.1953125, 0.1953125)"><path d="M851.497 172.572c-90.583-90.652-211.2-140.572-339.36-140.572-128.228 0-248.777 49.92-339.36 140.572-90.72 90.652-140.708 211.2-140.708 339.428s49.92 248.845 140.572 339.428c90.652 90.652 211.132 140.572 339.428 140.572 128.228 0 248.777-49.988 339.565-140.64 187.063-187.063 187.063-491.657-0.137-678.788zM793.897 793.692c-75.292 75.292-175.475 116.777-281.828 116.777-106.423 0-206.537-41.417-281.76-116.708s-116.708-175.268-116.708-281.76 41.485-206.537 116.845-281.828c75.155-75.223 175.268-116.708 281.692-116.708 106.492 0 206.537 41.417 281.692 116.708 155.452 155.383 155.452 408.205 0.068 563.52zM486.080 288.937c-7.612-8.983-18.583-15.017-31.268-15.017-0.068 0-0.205 0.068-0.275 0.068-10.56-0.068-21.12 3.84-29.143 11.932-8.023 8.023-11.932 18.583-11.932 29.143 0 0.068-0.068 0.137-0.068 0.275v393.257c0 0.137 0.068 0.205 0.068 0.343-0.068 10.492 3.84 21.12 11.863 29.143 7.955 8.023 18.377 12 28.8 12 0.068 0 0.205-0.068 0.343-0.068 0.068 0 0.205 0.068 0.275 0.068 12.685 0 23.657-6.035 31.268-14.948l194.332-194.332c7.612-7.612 11.932-18.035 11.932-28.8s-4.32-21.188-11.932-28.8l-194.263-194.263z" fill="#00bb9c"></path></g></g></svg>